<?xml version="1.0" standalone="no"?>
<!DOCTYPE svg PUBLIC "-//W3C//DTD SVG 1.1//EN" "http://www.w3.org/Graphics/SVG/1.1/DTD/svg11.dtd" >
<svg xmlns="http://www.w3.org/2000/svg">
<metadata>Generated by IcoMoon</metadata>
<defs>
<font id="icomoon" horiz-adv-x="1024">
<font-face units-per-em="1024" ascent="960" descent="-64" />
<missing-glyph horiz-adv-x="1024" />
<glyph unicode="&#x20;" horiz-adv-x="512" d="" />
<glyph unicode="&#xe900;" glyph-name="Cha" d="M783.529 629.019l-180.974-180.974 180.974-181.065-90.51-90.51-180.974 181.065-181.065-181.065-90.51 90.51 181.065 181.065-181.065 180.974 90.51 90.51 181.065-180.974 180.974 180.974 90.51-90.51z" />
<glyph unicode="&#xe901;" glyph-name="gou" d="M760.902 691.2l90.51-90.51-407.294-407.294-271.529 271.529 90.51 90.51 180.978-180.971 316.825 316.736z" />
<glyph unicode="&#xe902;" glyph-name="no-o" d="M512 960c282.77 0 512-229.23 512-512s-229.23-512-512-512c-282.77 0-512 229.23-512 512s229.23 512 512 512zM693.019 719.529l-180.974-180.974-181.065 180.974-90.51-90.51 181.065-180.974-181.065-181.065 90.51-90.51 181.065 181.065 180.974-181.065 90.51 90.51-180.974 181.065 180.974 180.974-90.51 90.51z" />
<glyph unicode="&#xe903;" glyph-name="sound" d="M546.719 816.557c5.169-7.236 7.947-15.907 7.947-24.799v-687.515c0-23.564-19.103-42.667-42.667-42.667-8.893 0-17.563 2.779-24.799 7.947l-231.201 165.143h-170.667c-23.564 0-42.667 19.103-42.667 42.667v341.333c0 23.564 19.103 42.667 42.667 42.667h170.667l231.201 165.143c19.175 13.696 45.822 9.255 59.519-9.92zM868.897 768.175c70.351-87.681 112.437-199.013 112.437-320.175 0-121.221-42.127-232.602-112.539-320.303l-60.753 60.803c55.168 71.9 87.959 161.87 87.959 259.499 0 97.591-32.765 187.529-87.893 259.414l60.79 60.761zM747.129 646.384c39.998-55.909 63.538-124.398 63.538-198.384 0-74.042-23.575-142.578-63.629-198.511l-61.457 61.435c25.173 39.63 39.752 86.65 39.752 137.075 0 50.372-14.548 97.345-39.672 136.948l61.467 61.436z" />
<glyph unicode="&#xe904;" glyph-name="keyB" d="M853.333 746.667c47.128 0 85.333-38.205 85.333-85.333v-469.333c0-47.128-38.205-85.333-85.333-85.333h-682.667c-47.128 0-85.333 38.205-85.333 85.333v469.333c0 47.128 38.205 85.333 85.333 85.333h682.667zM682.667 320h-341.333v-85.333h341.333v85.333zM298.667 490.667h-85.333v-85.333h85.333v85.333zM426.667 490.667h-85.333v-85.333h85.333v85.333zM554.667 490.667h-85.333v-85.333h85.333v85.333zM682.667 490.667h-85.333v-85.333h85.333v85.333zM810.667 490.667h-85.333v-85.333h85.333v85.333zM298.667 618.667h-85.333v-85.333h85.333v85.333zM426.667 618.667h-85.333v-85.333h85.333v85.333zM554.667 618.667h-85.333v-85.333h85.333v85.333zM682.667 618.667h-85.333v-85.333h85.333v85.333zM810.667 618.667h-85.333v-85.333h85.333v85.333z" />
<glyph unicode="&#xe905;" glyph-name="playB" d="M811.152 394.006l-520.792-331.413c-29.82-18.977-69.378-10.186-88.354 19.634-6.535 10.269-10.006 22.188-10.006 34.36v662.826c0 35.346 28.654 64 64 64 12.172 0 24.091-3.471 34.36-10.006l520.792-331.413c29.82-18.977 38.611-58.534 19.634-88.354-5.029-7.903-11.732-14.605-19.634-19.634z" />
<glyph unicode="&#xe906;" glyph-name="stopB" d="M320 832c35.346 0 64-28.654 64-64v-640c0-35.346-28.654-64-64-64h-128c-35.346 0-64 28.654-64 64v640c0 35.346 28.654 64 64 64h128zM832 832c35.346 0 64-28.654 64-64v-640c0-35.346-28.654-64-64-64h-128c-35.346 0-64 28.654-64 64v640c0 35.346 28.654 64 64 64h128z" />
<glyph unicode="&#xe907;" glyph-name="yes-o" d="M512 960c282.77 0 512-229.23 512-512s-229.23-512-512-512c-282.77 0-512 229.23-512 512s229.23 512 512 512zM733.246 664.178l-281.622-281.543-160.87 160.864-80.453-80.453 241.359-241.359 362.039 362.039-80.453 80.453z" />
<glyph unicode="&#xe908;" glyph-name="more" d="M512 544c53.019 0 96-42.981 96-96s-42.981-96-96-96c-53.019 0-96 42.981-96 96s42.981 96 96 96zM128 544c53.019 0 96-42.981 96-96s-42.981-96-96-96c-53.019 0-96 42.981-96 96s42.981 96 96 96zM896 544c53.019 0 96-42.981 96-96s-42.981-96-96-96c-53.019 0-96 42.981-96 96s42.981 96 96 96z" />
<glyph unicode="&#xe909;" glyph-name="stop" d="M320 832c35.346 0 64-28.654 64-64v-640c0-35.346-28.654-64-64-64h-128c-35.346 0-64 28.654-64 64v640c0 35.346 28.654 64 64 64h128zM832 832c35.346 0 64-28.654 64-64v-640c0-35.346-28.654-64-64-64h-128c-35.346 0-64 28.654-64 64v640c0 35.346 28.654 64 64 64h128z" />
<glyph unicode="&#xe90a;" glyph-name="play" d="M811.152 394.006l-520.792-331.413c-29.82-18.977-69.378-10.186-88.354 19.634-6.535 10.269-10.006 22.188-10.006 34.36v662.826c0 35.346 28.654 64 64 64 12.172 0 24.091-3.471 34.36-10.006l520.792-331.413c29.82-18.977 38.611-58.534 19.634-88.354-5.029-7.903-11.732-14.605-19.634-19.634z" />
<glyph unicode="&#xe90b;" glyph-name="edit" d="M678.823 805.49l-543.058-543.058-45.255-226.274 226.274 45.255 543.058 543.058-181.019 181.019zM769.332 896l181.019-181.019-45.255-45.255-181.019 181.019 45.255 45.255zM678.823 714.981l90.51-90.51-497.803-497.803-113.137-22.627 22.627 113.137 497.803 497.803z" />
<glyph unicode="&#xe90c;" glyph-name="cut" d="M284.444 846.222v-113.721l512-0.057v-512h113.778v-56.889h-113.778v-113.778h-56.889v113.778h-512v512.057l-113.778-0.057v56.889l113.778 0.057v113.721h56.889zM739.556 675.556l-455.111 0.057v-455.168h455.111v455.111zM284.444 732.444v-56.889h56.889v56.889h-56.889zM739.556 277.333v-56.889h56.889v56.889h-56.889z" />
<glyph unicode="&#xe90d;" glyph-name="file" d="M485.49 832c16.974 0 33.253-6.743 45.255-18.745l109.255-109.255h256c35.346 0 64-28.654 64-64v-512c0-35.346-28.654-64-64-64h-768c-35.346 0-64 28.654-64 64v640c0 35.346 28.654 64 64 64h357.49zM485.49 768h-357.49v-640h768v512h-282.51l-128 128zM832 512v-64h-640v64h640z" />
<glyph unicode="&#xe90e;" glyph-name="pic_change" horiz-adv-x="964" d="M874.772 176.911l1.306-0.087 0.346-0.003c1.39-0.179 2.46-0.356 3.51-0.588 0.854-0.191 1.719-0.422 2.574-0.692l2.411-0.876c0.813-0.335 1.641-0.72 2.453-1.145 0.74-0.391 1.441-0.796 2.123-1.228 0.712-0.447 1.421-0.939 2.113-1.465 0.794-0.605 1.554-1.244 2.281-1.918 0.285-0.265 0.554-0.524 0.819-0.789l0.903-0.943 0.812-0.922 2.459-3.347c0.472-0.75 0.921-1.534 1.334-2.339 0.342-0.662 0.661-1.347 0.954-2.041 0.369-0.875 0.693-1.757 0.976-2.657 0.279-0.896 0.519-1.806 0.715-2.725 0.14-0.639 0.259-1.301 0.355-1.97 0.152-1.069 0.248-2.121 0.289-3.175l0.017-0.57 0.006-0.609-0.241-3.192 0.060 0.422c-0.103-1.512-0.27-2.555-0.49-3.579-0.205-0.945-0.456-1.891-0.754-2.826-0.26-0.815-0.541-1.581-0.851-2.332-0.331-0.805-0.718-1.637-1.145-2.453-0.391-0.74-0.796-1.441-1.228-2.123-0.447-0.712-0.939-1.421-1.465-2.113-0.628-0.823-1.291-1.61-1.993-2.361l-85.9-85.924c-11.762-11.762-30.831-11.762-42.593 0s-11.762 30.831 0 42.593l33.718 33.784-228.412-0.013c-16.634 0-30.118 13.484-30.118 30.118s13.484 30.118 30.118 30.118l302.536-0.031zM783.059 779.294c33.267 0 60.235-26.968 60.235-60.235v-361.412h-60.235v3.158l-180.706 206.521-288.949-330.15h168.478v-60.235h-361.412c-33.267 0-60.235 26.968-60.235 60.235v481.882c0 33.267 26.968 60.235 60.235 60.235h662.588zM783.059 719.059h-662.588v-481.882h112.881l323.67 369.839c21.906 25.036 59.961 27.573 84.997 5.666 2.013-1.761 3.906-3.654 5.666-5.666l135.374-154.714v266.757zM240.941 658.824c33.267 0 60.235-26.968 60.235-60.235s-26.968-60.235-60.235-60.235c-33.267 0-60.235 26.968-60.235 60.235s26.968 60.235 60.235 60.235zM542.447 271.747l0.339 1.886c0.196 0.904 0.435 1.814 0.718 2.715 0.28 0.896 0.604 1.778 0.967 2.639 0.298 0.707 0.617 1.392 0.964 2.067 0.409 0.792 0.858 1.576 1.34 2.337 0.5 0.796 1.053 1.583 1.647 2.349 0.531 0.68 1.060 1.305 1.613 1.909l0.431 0.461 85.657 85.668c11.762 11.762 30.831 11.762 42.593 0s11.762-30.831 0-42.593l-33.838-33.759 228.533-0.013c16.634 0 30.118-13.484 30.118-30.118s-13.484-30.118-30.118-30.118h-301.176c-2.348 0-4.634 0.269-6.827 0.777-0.747 0.175-1.512 0.384-2.269 0.623-0.698 0.219-1.374 0.461-2.039 0.725-1.102 0.438-2.192 0.947-3.253 1.525-0.536 0.295-1.058 0.6-1.57 0.921l-2.238 1.543c-0.823 0.628-1.61 1.291-2.361 1.993l-1.453 1.453-1.024 1.153-0.52 0.631 1.568-1.767-1.807 2.108-1.686 2.361c-0.421 0.67-0.826 1.371-1.203 2.089-0.441 0.839-0.828 1.67-1.175 2.515-0.294 0.711-0.576 1.477-0.826 2.257-0.307 0.97-0.559 1.916-0.763 2.871-0.138 0.628-0.254 1.274-0.35 1.927-0.178 1.221-0.284 2.469-0.313 3.718l-0.008 0.695 0.329 4.452z" />
<glyph unicode="&#xe90f;" glyph-name="item_change" d="M929.445 191.698l1.387-0.092 0.624-0.054-3.456 0.178 3.776-0.242-0.192 0.064 0.631-0.099-0.439 0.035 3.154-0.51c0.907-0.203 1.826-0.448 2.735-0.735l1.298-0.44 1.264-0.491c0.864-0.356 1.743-0.765 2.606-1.217 0.786-0.415 1.531-0.846 2.256-1.305 0.757-0.475 1.51-0.998 2.245-1.556 0.843-0.643 1.651-1.322 2.423-2.038 0.303-0.281 0.589-0.556 0.87-0.838l0.96-1.002 0.862-0.979 0.511-0.665 2.102-2.891c0.501-0.797 0.978-1.63 1.418-2.485 0.363-0.703 0.703-1.431 1.013-2.168 0.392-0.929 0.736-1.867 1.037-2.823 0.297-0.952 0.551-1.919 0.76-2.895 0.148-0.679 0.275-1.383 0.378-2.093 0.162-1.135 0.264-2.253 0.308-3.374l0.018-0.606 0.006-0.647-0.256-3.378 0.064 0.448c-0.109-1.62-0.287-2.728-0.52-3.816-0.218-1.004-0.485-2.009-0.802-3.002-0.276-0.866-0.575-1.68-0.905-2.478-0.352-0.855-0.763-1.739-1.217-2.606-0.415-0.786-0.846-1.531-1.305-2.256-0.475-0.757-0.998-1.51-1.556-2.245-0.667-0.874-1.372-1.71-2.118-2.508l-91.269-91.295c-12.497-12.497-32.758-12.497-45.255 0s-12.497 32.758 0 45.255l35.825 35.896-242.688-0.014c-17.673 0-32 14.327-32 32s14.327 32 32 32l321.445-0.032zM448 448v-256c0-70.692-57.308-128-128-128h-128c-70.692 0-128 57.308-128 128v128c0 70.692 57.308 128 128 128h256zM384 384h-192c-32.821 0-59.872-24.707-63.569-56.536l-0.431-7.464v-128c0-32.821 24.707-59.872 56.536-63.569l7.464-0.431h128c32.821 0 59.872 24.707 63.569 56.536l0.431 7.464v192zM721.137 400.867c12.497-12.497 12.497-32.758 0-45.255l-35.953-35.869 242.816-0.014c17.673 0 32-14.327 32-32s-14.327-32-32-32h-320c-2.495 0-4.923 0.286-7.254 0.826-0.794 0.186-1.606 0.408-2.411 0.662-0.742 0.233-1.46 0.49-2.166 0.771-1.171 0.465-2.328 1.006-3.457 1.62-0.569 0.313-1.124 0.638-1.668 0.978-0.807 0.502-1.603 1.051-2.378 1.64-0.874 0.667-1.71 1.372-2.508 2.118l-1.544 1.544-1.088 1.225-0.552 0.671-0.318 0.376-1.728 2.495c-0.447 0.712-0.878 1.457-1.278 2.219-0.469 0.891-0.88 1.775-1.249 2.672-0.313 0.756-0.612 1.57-0.877 2.398-0.327 1.030-0.594 2.036-0.811 3.050-0.146 0.668-0.27 1.354-0.372 2.047-0.19 1.297-0.302 2.623-0.333 3.95l-0.008 0.739 0.35 4.731 0.36 2.004c0.208 0.96 0.463 1.928 0.763 2.884 0.297 0.952 0.642 1.889 1.028 2.804 0.316 0.751 0.656 1.479 1.024 2.196 0.434 0.841 0.911 1.674 1.423 2.483 0.532 0.845 1.119 1.682 1.75 2.496 0.564 0.722 1.126 1.387 1.714 2.028l0.458 0.49 91.011 91.022c12.497 12.497 32.758 12.497 45.255 0zM320 896c70.692 0 128-57.308 128-128v-256h-256c-70.692 0-128 57.308-128 128v128c0 70.692 57.308 128 128 128h128zM768 896c70.692 0 128-57.308 128-128v-128c0-70.692-57.308-128-128-128h-256v256c0 70.692 57.308 128 128 128h128zM320 832h-128c-32.821 0-59.872-24.707-63.569-56.536l-0.431-7.464v-128c0-32.821 24.707-59.872 56.536-63.569l7.464-0.431h192v192c0 30.297-21.052 55.677-49.325 62.31l-7.211 1.26-7.464 0.431zM768 832h-128c-32.821 0-59.872-24.707-63.569-56.536l-0.431-7.464v-192h192c32.821 0 59.872 24.707 63.569 56.536l0.431 7.464v128c0 32.821-24.707 59.872-56.536 63.569l-7.464 0.431z" />
<glyph unicode="&#xe910;" glyph-name="music" d="M896 253.217l-1.079-0.002c0.712-5.464 1.079-11.036 1.079-16.693 0-70.692-57.308-128-128-128s-128 57.308-128 128c0 70.692 57.308 128 128 128 22.177 0 43.038-5.64 61.224-15.564l-0.007 321.173-456.348-52.981v-419.584h-0.114c0.076-1.845 0.114-3.701 0.114-5.565 0-70.692-54.816-128-122.435-128s-122.435 57.308-122.435 128c0 70.692 54.816 128 122.435 128 20.043 0 38.962-5.035 55.661-13.962l-0.009 459.179h14.67l575.243 66.783v-578.783z" />
<glyph unicode="&#xe911;" glyph-name="video" d="M640 768c35.346 0 64-28.654 64-64v-512c0-35.346-28.654-64-64-64h-512c-35.346 0-64 28.654-64 64v512c0 35.346 28.654 64 64 64h512zM960 768v-448l-192 128v192l192 128zM512 640c-35.346 0-64-28.654-64-64s28.654-64 64-64c35.346 0 64 28.654 64 64s-28.654 64-64 64z" />
<glyph unicode="&#xe912;" glyph-name="media-model" d="M896 768c35.346 0 64-28.654 64-64v-512c0-35.346-28.654-64-64-64h-768c-35.346 0-64 28.654-64 64v512c0 35.346 28.654 64 64 64h768zM512 640c-106.039 0-192-85.961-192-192s85.961-192 192-192c106.039 0 192 85.961 192 192s-85.961 192-192 192zM480 548.207c6.318 0 12.494-1.87 17.75-5.374l102.311-68.207c14.705-9.803 18.678-29.671 8.875-44.376-2.344-3.515-5.36-6.532-8.875-8.875l-102.311-68.207c-14.705-9.803-34.573-5.83-44.376 8.875-3.504 5.257-5.374 11.433-5.374 17.75v136.415c0 17.673 14.327 32 32 32z" />
<glyph unicode="&#xe913;" glyph-name="mix-model" d="M720 416c97.202 0 176-78.798 176-176s-78.798-176-176-176c-97.202 0-176 78.798-176 176v176h176zM480 416v-176c0-97.202-78.798-176-176-176s-176 78.798-176 176c0 97.202 78.798 176 176 176h176zM304 832c97.202 0 176-78.798 176-176v-176h-176c-97.202 0-176 78.798-176 176s78.798 176 176 176zM720 832c97.202 0 176-78.798 176-176s-78.798-176-176-176h-176v176c0 97.202 78.798 176 176 176z" />
<glyph unicode="&#xe914;" glyph-name="text-model" d="M800 832c35.346 0 64-28.654 64-64v-640c0-35.346-28.654-64-64-64h-576c-35.346 0-64 28.654-64 64v640c0 35.346 28.654 64 64 64h576zM752 224h-480c-8.837 0-16-7.163-16-16s7.163-16 16-16v0h480c8.837 0 16 7.163 16 16s-7.163 16-16 16v0zM704 704h-384v-64h160v-320h64v320h160v64z" />
<glyph unicode="&#xe915;" glyph-name="card-model" d="M800 896c35.346 0 64-28.654 64-64v-768c0-35.346-28.654-64-64-64h-576c-35.346 0-64 28.654-64 64v768c0 35.346 28.654 64 64 64h576zM592 192h-288c-8.837 0-16-7.163-16-16 0-7.855 5.66-14.387 13.124-15.742l2.876-0.258h288c8.837 0 16 7.163 16 16s-7.163 16-16 16zM720 320h-416c-8.837 0-16-7.163-16-16 0-7.855 5.66-14.387 13.124-15.742l2.876-0.258h416c8.837 0 16 7.163 16 16s-7.163 16-16 16zM768 800h-512v-352h156.448l203.635 229.093c11.741 13.209 31.968 14.399 45.177 2.657 0.937-0.833 1.824-1.72 2.657-2.657l104.083-117.061v239.968zM384 736c35.346 0 64-28.654 64-64s-28.654-64-64-64c-35.346 0-64 28.654-64 64s28.654 64 64 64z" />
<glyph unicode="&#xe916;" glyph-name="exit" d="M640 832v-64h-448v-640h448v-64h-512v768h512zM704 640l256-192-256-192-0.064 128h-319.936v128h320v128z" />
<glyph unicode="&#xe917;" glyph-name="book" d="M810.667 874.667c47.128 0 85.333-38.205 85.333-85.333v-682.667c0-47.128-38.205-85.333-85.333-85.333h-597.333c-47.128 0-85.333 38.205-85.333 85.333v85.333h85.333v85.333h-85.333v128h85.333v85.333h-85.333v128h85.333v85.333h-85.333v85.333c0 47.128 38.205 85.333 85.333 85.333h597.333zM640 405.333h-213.333c-47.128 0-85.333-38.205-85.333-85.333v0-85.333h384v85.333c0 47.128-38.205 85.333-85.333 85.333v0zM533.333 661.333c-58.91 0-106.667-47.756-106.667-106.667s47.756-106.667 106.667-106.667c58.91 0 106.667 47.756 106.667 106.667s-47.756 106.667-106.667 106.667z" />
<glyph unicode="&#xe918;" glyph-name="X" d="M816.762 813.714l60.952-60.952-304.786-304.762 304.786-304.762-60.952-60.952-304.835 304.786-304.689-304.786-60.952 60.952 304.713 304.762-304.713 304.762 60.952 60.952 304.762-304.713 304.762 304.713z" />
<glyph unicode="&#xe919;" glyph-name="search" d="M416 896c194.404 0 352-157.596 352-352 0-85.652-30.592-164.159-81.446-225.19l224.975-225.084-45.255-45.255-225.019 225.029c-61.041-50.886-139.573-81.5-225.255-81.5-194.404 0-352 157.596-352 352s157.596 352 352 352zM416 832c-159.058 0-288-128.942-288-288s128.942-288 288-288c159.058 0 288 128.942 288 288s-128.942 288-288 288z" />
<glyph unicode="&#xe91a;" glyph-name="left" d="M585.143 758.319l51.72-51.72-258.599-258.599 258.599-258.599-51.72-51.72-310.319 310.319 310.319 310.319z" />
<glyph unicode="&#xe91b;" glyph-name="down" d="M201.681 521.143l51.72 51.72 258.599-258.599 258.599 258.599 51.72-51.72-310.319-310.319-310.319 310.319z" />
<glyph unicode="&#xe91c;" glyph-name="up" d="M201.681 374.857l51.72-51.72 258.599 258.599 258.599-258.599 51.72 51.72-310.319 310.319-310.319-310.319z" />
<glyph unicode="&#xe91d;" glyph-name="bigdown" d="M201.663 505.994c-28.564 28.564-28.564 74.876 0 103.44s74.876 28.564 103.44 0v0l206.931-206.931 206.828 206.931c26.524 26.524 68.35 28.418 97.060 5.684l6.38-5.684c28.564-28.564 28.564-74.876 0-103.44v0l-258.599-258.599c-28.564-28.564-74.876-28.564-103.44 0v0z" />
<glyph unicode="&#xe91e;" glyph-name="delete" d="M704 896c35.346 0 64-28.654 64-64v-63.936l192-0.064v-64l-64 0.064v-576.064c0-70.692-57.308-128-128-128h-512c-70.692 0-128 57.308-128 128v576.064l-64-0.064v64l192 0.064v63.936c0 35.346 28.654 64 64 64h384zM832 704.064h-640v-576.064c0-32.821 24.707-59.872 56.536-63.569l7.464-0.431h512c32.821 0 59.872 24.707 63.569 56.536l0.431 7.464v576.064zM448 576v-384h-64v384h64zM640 576v-384h-64v384h64zM704 832h-384v-64h384v64z" />
<glyph unicode="&#xe91f;" glyph-name="question" d="M512 960c282.77 0 512-229.23 512-512s-229.23-512-512-512c-282.77 0-512 229.23-512 512s229.23 512 512 512zM491.072 292.672c-14.080 0-26.752-4.224-36.608-14.080-9.856-9.152-14.784-21.12-14.784-35.904 0-14.080 4.928-26.048 14.784-35.904s22.528-14.784 36.608-14.784c14.080 0 26.752 4.928 36.608 14.080 9.856 9.856 15.488 21.824 15.488 36.608s-4.928 26.752-14.784 35.904c-9.856 9.856-22.528 14.080-37.312 14.080zM503.744 704.512c-52.096 0-92.928-14.784-122.496-45.056-29.568-29.568-44.352-69.696-44.352-121.088v0h73.92c0 30.976 6.336 54.912 19.008 71.808 14.080 20.416 37.312 30.272 68.992 30.272 25.344 0 45.76-7.040 59.84-21.12 13.376-14.080 20.416-33.088 20.416-57.728 0-18.304-7.040-35.2-19.712-51.392v0l-11.968-13.376c-43.648-38.72-70.4-67.584-79.552-87.296-9.856-18.304-14.080-40.832-14.080-66.88v0-11.968h75.328v11.968c0 16.896 3.52 32.384 11.264 46.464 6.336 12.672 16.192 25.344 29.568 36.608 33.088 28.864 52.8 47.168 59.136 54.912 17.6 22.528 26.752 51.392 26.752 85.888 0 42.24-14.080 76.032-42.24 100.672-28.16 25.344-64.768 37.312-109.824 37.312z" />
<glyph unicode="&#xe920;" glyph-name="com" d="M512 896c70.692 0 128-57.308 128-128v-256h192c35.346 0 64-28.654 64-64v-384h96c17.673 0 32-14.327 32-32s-14.327-32-32-32h-960c-17.673 0-32 14.327-32 32s14.327 32 32 32h96v704c0 70.692 57.308 128 128 128h256zM512 256h-256v-128h256v128zM512 512h-256v-128h256v128zM512 768h-256v-128h256v128z" />
<glyph unicode="&#xe921;" glyph-name="Key" d="M256 0c-35.346 0-64 28.654-64 64v384c0 35.346 28.654 64 64 64v64c0 141.385 114.615 256 256 256s256-114.615 256-256v-64c35.346 0 64-28.654 64-64v-384c0-35.346-28.654-64-64-64h-512zM512 320c-35.346 0-64-28.654-64-64s28.654-64 64-64c35.346 0 64 28.654 64 64s-28.654 64-64 64zM512 768c-106.039 0-192-85.961-192-192v-64h384v64c0 106.039-85.961 192-192 192z" />
<glyph unicode="&#xe922;" glyph-name="login-Uers" d="M704 320c106.039 0 192-85.961 192-192v-128h-768v128c0 106.039 85.961 192 192 192h384zM512 832c106.039 0 192-85.961 192-192s-85.961-192-192-192c-106.039 0-192 85.961-192 192s85.961 192 192 192z" />
<glyph unicode="&#xe923;" glyph-name="data" d="M512 874.667v-426.667h426.667c0-235.641-191.025-426.667-426.667-426.667s-426.667 191.025-426.667 426.667c0 231.648 184.605 420.178 414.724 426.503l11.943 0.164zM597.308 909.599c190.799-35.036 341.232-185.458 376.284-376.252l-376.259-0.014-0.025 376.266z" />
<glyph unicode="&#xe924;" glyph-name="base-management" d="M896 661.333v-512c0-47.128-38.205-85.333-85.333-85.333h-597.333c-47.128 0-85.333 38.205-85.333 85.333v512h768zM682.667 320h-85.333v-42.667h-341.333v-42.667h341.333v-42.667h85.333v42.667h85.333v42.667h-85.333v42.667zM426.667 533.333h-85.333v-42.667h-85.333v-42.667h85.333v-42.667h85.333v42.667h341.333v42.667h-341.333v42.667zM128 746.667c0 47.128 38.205 85.333 85.333 85.333h597.333c47.128 0 85.333-38.205 85.333-85.333v-42.667h-768v42.667z" />
<glyph unicode="&#xe925;" glyph-name="Business-manegement" d="M639.959 463.158c31.273-35.458 77.045-57.824 128.041-57.824 31.105 0 60.267 8.321 85.381 22.86l-0.047-278.86c0-47.128-38.205-85.333-85.333-85.333h-512c-47.128 0-85.333 38.205-85.333 85.333l-0.043 278.857c25.112-14.536 54.273-22.857 85.376-22.857 50.996 0 96.768 22.366 127.959 57.824 31.273-35.458 77.045-57.824 128.041-57.824s96.768 22.366 127.959 57.824zM640 234.667h-256v-85.333h256v85.333zM896 704h-768v-128l0.217-7.521c3.893-67.192 59.615-120.479 127.783-120.479s123.89 53.287 127.783 120.479l0.217 7.521c0-70.692 57.308-128 128-128s128 57.308 128 128c0-70.692 57.308-128 128-128s128 57.308 128 128v128zM810.667 832h-597.333c-47.128 0-85.333-38.205-85.333-85.333h768l-0.234 6.369c-3.258 44.154-40.113 78.965-85.099 78.965z" />
<glyph unicode="&#xe926;" glyph-name="ChatBot-manegement" d="M810.667 832c47.128 0 85.333-38.205 85.333-85.333v-426.667c0-47.128-38.205-85.333-85.333-85.333h-512l-170.667-170.667v682.667c0 47.128 38.205 85.333 85.333 85.333h597.333zM597.333 490.667h-298.667v-85.333h298.667v85.333zM725.333 661.333h-426.667v-85.333h426.667v85.333z" />
<glyph unicode="&#xe927;" glyph-name="material" d="M887.482 320l8.398-3.828c21.452-9.751 30.938-35.046 21.187-56.498-4.269-9.391-11.795-16.918-21.187-21.187l-348.569-158.44c-22.436-10.198-48.186-10.198-70.622 0l-348.569 158.44c-21.452 9.751-30.938 35.046-21.187 56.498 4.269 9.391 11.795 16.918 21.187 21.187l8.344 3.828 340.225-154.62c19.943-9.065 42.505-10.072 63.030-3.022l7.592 3.022 340.171 154.62zM887.482 500.135l8.398-3.828c21.452-9.751 30.938-35.046 21.187-56.498-4.269-9.391-11.795-16.918-21.187-21.187l-348.569-158.44c-22.436-10.198-48.186-10.198-70.622 0l-348.569 158.44c-21.452 9.751-30.938 35.046-21.187 56.498 4.269 9.391 11.795 16.918 21.187 21.187l8.344 3.828 340.225-154.62c19.943-9.065 42.505-10.072 63.030-3.022l7.592 3.022 340.171 154.62zM547.311 825.414l348.569-158.44c21.452-9.751 30.938-35.046 21.187-56.498-4.269-9.391-11.795-16.918-21.187-21.187l-348.569-158.44c-22.436-10.198-48.186-10.198-70.622 0l-348.569 158.44c-21.452 9.751-30.938 35.046-21.187 56.498 4.269 9.391 11.795 16.918 21.187 21.187l348.569 158.44c22.436 10.198 48.186 10.198 70.622 0z" />
<glyph unicode="&#xe928;" glyph-name="model-management" d="M384 533.333v-469.333h-170.667c-47.128 0-85.333 38.205-85.333 85.333v384h256zM896 533.333v-384c0-47.128-38.205-85.333-85.333-85.333h-341.333v469.333h426.667zM810.667 832c47.128 0 85.333-38.205 85.333-85.333v-128h-768v128c0 47.128 38.205 85.333 85.333 85.333h597.333z" />
<glyph unicode="&#xe929;" glyph-name="power" d="M512 874.667c0-47.128 152.82-85.333 341.333-85.333v-298.667c0-199.111-113.778-355.556-341.333-469.333-227.556 113.778-341.333 270.222-341.333 469.333v298.667c184.129 0 334.206 36.449 341.087 82.060l0.246 3.273zM512 704c-70.692 0-128-57.308-128-128 0-55.733 35.62-103.147 85.337-120.718l-0.004-220.615h85.333v85.333h85.333v85.333h-85.333l0.038 49.964c49.695 17.583 85.295 64.985 85.295 120.703 0 70.692-57.308 128-128 128zM512 618.667c23.564 0 42.667-19.103 42.667-42.667s-19.103-42.667-42.667-42.667c-23.564 0-42.667 19.103-42.667 42.667s19.103 42.667 42.667 42.667z" />
<glyph unicode="&#xe92a;" glyph-name="report" d="M298.667 832v-42.667c0-21.881 16.471-39.915 37.691-42.38l4.976-0.287h341.333c21.881 0 39.915 16.471 42.38 37.691l0.287 4.976v42.667h85.333c23.564 0 42.667-19.103 42.667-42.667v-682.667c0-23.564-19.103-42.667-42.667-42.667h-597.333c-23.564 0-42.667 19.103-42.667 42.667v682.667c0 23.564 19.103 42.667 42.667 42.667h85.333zM636.784 528.157l-165.965-165.904-90.479 90.479-60.34-60.34 150.849-150.849 226.275 226.274-60.34 60.34zM640 874.667c23.564 0 42.667-19.103 42.667-42.667s-19.103-42.667-42.667-42.667h-256c-23.564 0-42.667 19.103-42.667 42.667s19.103 42.667 42.667 42.667h256z" />
<glyph unicode="&#xe92b;" glyph-name="Ring" d="M597.333 106.667c0-47.128-38.205-85.333-85.333-85.333-44.986 0-81.842 34.811-85.099 78.965l-0.234 6.369h170.667zM512 874.667c164.949 0 298.667-133.718 298.667-298.667v-256l76.8-102.4c14.138-18.851 10.318-45.595-8.533-59.733-7.385-5.539-16.368-8.533-25.6-8.533h-682.667c-23.564 0-42.667 19.103-42.667 42.667 0 9.232 2.994 18.215 8.533 25.6l76.8 102.4v256c0 164.949 133.718 298.667 298.667 298.667z" />
<glyph unicode="&#xe92c;" glyph-name="sys-setting" d="M320 277.333c58.91 0 106.667-47.756 106.667-106.667s-47.756-106.667-106.667-106.667c-43.726 0-81.308 26.311-97.776 63.965l-94.224 0.035c-23.564 0-42.667 19.103-42.667 42.667s19.103 42.667 42.667 42.667l94.224 0.035c16.468 37.654 54.049 63.965 97.776 63.965zM460.453 213.345l435.547-0.011c23.564 0 42.667-19.103 42.667-42.667s-19.103-42.667-42.667-42.667l-435.558-0.035c5.718 13.075 8.891 27.518 8.891 42.702 0 15.175-3.169 29.609-8.881 42.678zM704 576c43.726 0 81.308-26.311 97.776-63.965l94.224-0.035c23.564 0 42.667-19.103 42.667-42.667s-19.103-42.667-42.667-42.667l-94.224-0.035c-16.468-37.654-54.049-63.965-97.776-63.965-58.91 0-106.667 47.756-106.667 106.667s47.756 106.667 106.667 106.667zM563.547 512.011c-5.712-13.069-8.881-27.503-8.881-42.678 0-15.184 3.173-29.627 8.891-42.702l-435.558 0.035c-23.564 0-42.667 19.103-42.667 42.667s19.103 42.667 42.667 42.667l435.547 0.011zM320 874.667c58.91 0 106.667-47.756 106.667-106.667s-47.756-106.667-106.667-106.667c-43.726 0-81.308 26.311-97.776 63.965l-94.224 0.035c-23.564 0-42.667 19.103-42.667 42.667s19.103 42.667 42.667 42.667l94.224 0.035c16.468 37.654 54.049 63.965 97.776 63.965zM460.453 810.678l435.547-0.011c23.564 0 42.667-19.103 42.667-42.667s-19.103-42.667-42.667-42.667l-435.558-0.035c5.718 13.075 8.891 27.518 8.891 42.702 0 15.175-3.169 29.609-8.881 42.678z" />
<glyph unicode="&#xe92d;" glyph-name="user" horiz-adv-x="983" d="M696.32 386.56c90.486 0 163.84-73.354 163.84-163.84v-163.84h-737.28v163.84c0 90.486 73.354 163.84 163.84 163.84h409.6zM491.52 878.080c113.108 0 204.8-91.692 204.8-204.8s-91.692-204.8-204.8-204.8c-113.108 0-204.8 91.692-204.8 204.8s91.692 204.8 204.8 204.8z" />
<glyph unicode="&#xe92e;" glyph-name="Thing_mane" d="M298.667 789.333h-42.667c-47.128 0-85.333-38.205-85.333-85.333v-597.333c0-47.128 38.205-85.333 85.333-85.333h512c47.128 0 85.333 38.205 85.333 85.333v597.333c0 47.128-38.205 85.333-85.333 85.333h-42.667v-42.667l-0.287-4.976c-2.465-21.22-20.499-37.691-42.38-37.691l-346.309 0.287c-21.22 2.465-37.691 20.499-37.691 42.38v42.667zM640 832c23.564 0 42.667-19.103 42.667-42.667s-19.103-42.667-42.667-42.667h-256c-23.564 0-42.667 19.103-42.667 42.667s19.103 42.667 42.667 42.667h256zM341.333 533.333h341.333v-85.333h-341.333v85.333zM341.333 320h341.333v-85.333h-341.333v85.333z" />
<glyph unicode="&#xe92f;" glyph-name="Add_14x14" d="M548.753 886.857l-0.036-402.432 402.139-0.036v-73.143l-402.139 0.036 0.036-402.139h-73.143l-0.036 402.139-402.432-0.036v73.143l402.432 0.036 0.036 402.432h73.143z" />
<glyph unicode="&#xe930;" glyph-name="Add_24x24" d="M512 960c47.128 0 85.333-38.205 85.333-85.333v-341.333h341.333c47.128 0 85.333-38.205 85.333-85.333s-38.205-85.333-85.333-85.333h-341.333v-341.333c0-47.128-38.205-85.333-85.333-85.333s-85.333 38.205-85.333 85.333v341.376l-341.333-0.043c-47.128 0-85.333 38.205-85.333 85.333s38.205 85.333 85.333 85.333l341.333 0.043v341.291c0 47.128 38.205 85.333 85.333 85.333z" />
</font>
</defs>
</svg>
